<svg width="65" height="27" viewBox="0 0 65 27" fill="none" xmlns="http://www.w3.org/2000/svg">
<path d="M12.8359 18.4668V20H5.30664V18.4668H12.8359ZM5.6875 5.78125V20H3.80273V5.78125H5.6875ZM11.8398 11.8945V13.4277H5.30664V11.8945H11.8398ZM12.7383 5.78125V7.32422H5.30664V5.78125H12.7383ZM16.1172 9.43359L18.4316 13.2812L20.7754 9.43359H22.8945L19.4375 14.6484L23.002 20H20.9121L18.4707 16.0352L16.0293 20H13.9297L17.4844 14.6484L14.0371 9.43359H16.1172ZM26.7812 9.43359V20H24.9648V9.43359H26.7812ZM24.8281 6.63086C24.8281 6.33789 24.916 6.09049 25.0918 5.88867C25.2741 5.68685 25.541 5.58594 25.8926 5.58594C26.2376 5.58594 26.5013 5.68685 26.6836 5.88867C26.8724 6.09049 26.9668 6.33789 26.9668 6.63086C26.9668 6.91081 26.8724 7.15169 26.6836 7.35352C26.5013 7.54883 26.2376 7.64648 25.8926 7.64648C25.541 7.64648 25.2741 7.54883 25.0918 7.35352C24.916 7.15169 24.8281 6.91081 24.8281 6.63086ZM34.1055 9.43359V10.8203H28.3926V9.43359H34.1055ZM30.3262 6.86523H32.1328V17.3828C32.1328 17.7409 32.1882 18.0111 32.2988 18.1934C32.4095 18.3757 32.5527 18.4961 32.7285 18.5547C32.9043 18.6133 33.0931 18.6426 33.2949 18.6426C33.4447 18.6426 33.6009 18.6296 33.7637 18.6035C33.9329 18.571 34.0599 18.5449 34.1445 18.5254L34.1543 20C34.0111 20.0456 33.8223 20.0879 33.5879 20.127C33.36 20.1725 33.0833 20.1953 32.7578 20.1953C32.3151 20.1953 31.9082 20.1074 31.5371 19.9316C31.166 19.7559 30.8698 19.4629 30.6484 19.0527C30.4336 18.6361 30.3262 18.0762 30.3262 17.373V6.86523Z" fill="white"/>
<path d="M57 18V20C57 20.7956 56.6839 21.5587 56.1213 22.1213C55.5587 22.6839 54.7956 23 54 23H50C49.2044 23 48.4413 22.6839 47.8787 22.1213C47.3161 21.5587 47 20.7956 47 20V8C47 7.20435 47.3161 6.44129 47.8787 5.87868C48.4413 5.31607 49.2044 5 50 5H54C54.7956 5 55.5587 5.31607 56.1213 5.87868C56.6839 6.44129 57 7.20435 57 8V10" stroke="white" stroke-width="1.5" stroke-linecap="round" stroke-linejoin="round"/>
<path d="M63.5 13.73H51.5" stroke="white" stroke-width="1.5" stroke-linecap="round" stroke-linejoin="round"/>
<path d="M59.9 10.13L63.5 13.73L59.9 17.33" stroke="white" stroke-width="1.5" stroke-linecap="round" stroke-linejoin="round"/>
</svg>
